<svg width="24" height="24" viewBox="0 0 24 24" fill="none" xmlns="http://www.w3.org/2000/svg">
<path d="M6.25 20H13.75C14.0814 19.9997 14.3992 19.8716 14.6335 19.644C14.8679 19.4163 14.9997 19.1077 15 18.7857V16.9643H13.75V18.7857H6.25V4.21429H13.75V6.03571H15V4.21429C14.9997 3.89234 14.8679 3.58366 14.6335 3.35601C14.3992 3.12836 14.0814 3.00032 13.75 3H6.25C5.91858 3.00032 5.60083 3.12836 5.36648 3.35601C5.13213 3.58366 5.00033 3.89234 5 4.21429V18.7857C5.00033 19.1077 5.13213 19.4163 5.36648 19.644C5.60083 19.8716 5.91858 19.9997 6.25 20Z" fill="black"/>
<path d="M15.4692 14.1752L17.6607 12.0833H9V10.9167H17.6607L15.4692 8.82483L16.3333 8L20 11.5L16.3333 15L15.4692 14.1752Z" fill="black"/>
</svg>
