<svg width="16" height="15" viewBox="0 0 16 15" fill="none" xmlns="http://www.w3.org/2000/svg">
<path d="M0 0V4H0.666667V14.6667H15.3333V4H16V0H0ZM1.33333 1.33333H14.6667V2.66667H1.33333V1.33333ZM2 4H14V13.3333H2V4ZM5.87533 5.33333C5.78779 5.34152 5.70271 5.36687 5.62496 5.40793C5.54721 5.449 5.4783 5.50498 5.42219 5.57267C5.36607 5.64037 5.32383 5.71845 5.29789 5.80247C5.27195 5.88648 5.26281 5.97479 5.271 6.06233C5.27919 6.14988 5.30454 6.23496 5.3456 6.31271C5.38667 6.39046 5.44264 6.45936 5.51034 6.51548C5.64705 6.62882 5.82319 6.6832 6 6.66667H10C10.1768 6.66667 10.3464 6.59643 10.4714 6.4714C10.5964 6.34638 10.6667 6.17681 10.6667 6C10.6667 5.82319 10.5964 5.65362 10.4714 5.5286C10.3464 5.40357 10.1768 5.33333 10 5.33333H6C5.97912 5.33235 5.95821 5.33235 5.93733 5.33333C5.91646 5.33235 5.89621 5.33235 5.87533 5.33333Z" fill="black"/>
</svg>
